<svg version="1.1" id="svg2" xmlns="http://www.w3.org/2000/svg" xmlns:xlink="http://www.w3.org/1999/xlink" x="0" y="0" viewBox="0 0 2000 505.7" style="enable-background:new 0 0 2000 505.7" xml:space="preserve"><style>.st1{fill:#1c1c21}</style><g transform="matrix(3.02852 0 0 3.02852 -638.905 -2130.023)" id="g152"><defs><path id="SVGID_1_" d="M-458.8 534h2000v505.7h-2000z"/></defs><clipPath id="SVGID_2_"><use xlink:href="#SVGID_1_" style="overflow:visible"/></clipPath><g id="g154" style="clip-path:url(#SVGID_2_)"><g id="g160" transform="translate(277.731 790.837)"><path id="path162" class="st1" d="M144.3-9c-17.5 0-23.6 19.3-23.6 33.6 0 9.4 2.6 13.7 8.2 13.7 9.3 0 20.5-15.3 23.3-30.5l2.9-14.6C151.9-8 148.2-9 144.3-9m17.5 60.3h-15.3l2.5-14.2c-6.3 9.9-15.4 16.2-25.6 16.2-15.2 0-22-10.4-22-26 0-23.2 12.7-50.8 44.6-50.8 4.4 0 9.3.6 12 1.3l6.7-33.8h17.9L161.8 51.3z"/></g><g id="g164" transform="translate(289.128 791.195)"><path id="path166" class="st1" d="M201.1-11.5c-10.2 0-17.3 8-20.3 19.5 24.3 0 29.3-6.4 29.3-12.2 0-4.2-3.1-7.3-9-7.3m-22.7 31.7c-.3 2-.4 4.1-.4 6 0 8.9 4 12.9 15.5 12.9 7.1 0 16-1.6 22.5-3.9v13.6c-7 2.6-17.3 4.2-26.5 4.2-20.6 0-29.6-8-29.6-25.5 0-22.9 11-52.1 42.8-52.1 18.2 0 25.2 8.6 25.2 18.9-.2 12.2-8.6 24.8-49.5 25.9"/></g><g id="g168" transform="translate(301.22 790.717)"><path id="path170" class="st1" d="M261.4-8.2h-15.9l-7 36.1c-1.7 8.9.7 10.6 7.9 10.6h5.9l-2.4 12.9c-3.4 1.1-9.2 1.7-14 1.7-11.7 0-19-5.6-16-21.2l7.9-40.1h-10.4l2.6-13.9h10.4l3.6-18.3h17.9l-3.5 18.3h15.9l-2.9 13.9z"/></g><g id="g172" transform="translate(308.781 790.31)"><path id="path174" class="st1" d="M299-5.4c-1.7-.4-4.3-1-6.6-1-7.3 0-18.6 13-21.2 26.2l-6.2 32h-18l14.3-73.5h15.4l-2.6 14.6c6.9-9.9 14.3-16.6 22-16.6 3.7 0 5.9.3 8.4 1L299-5.4z"/></g><g id="g176" transform="translate(314.95 790.837)"><path id="path178" class="st1" d="M329.8-9c-17.5 0-23.6 19.3-23.6 33.6 0 9.4 2.6 13.7 8.2 13.7 9.3 0 20.5-15.3 23.3-30.5l2.9-14.6c-3.2-1.2-7-2.2-10.8-2.2m17.4 60.3h-15.1l2.4-14.2c-6.3 9.9-15.5 16.2-25.6 16.2-15.2 0-22-10.4-22-26 0-23.2 12.7-50.8 44.6-50.8 10.7 0 20.6 2 29.5 4.7l-13.8 70.1z"/></g><g id="g180" transform="translate(331.119 788.278)"><path id="path182" class="st1" d="m410.4 8.8-8.7 45.1h-18l8.3-42.6c.7-3.4 1-6.2 1-8.7 0-5.7-2-9.2-7.9-9.2-9.9 0-21.2 15.3-23.9 29.6l-6 30.9h-18l14.3-73.5H367l-2.8 14.2c5.9-9.2 15.3-16.2 26.8-16.2 14.2 0 20.5 8.1 20.5 21-.2 2.6-.4 6-1.1 9.4"/></g><g id="g184" transform="translate(342.376 791.41)"><path id="path186" class="st1" d="M466.4-13.1c-4.4-1.7-8.7-2.4-13.6-2.4-8.7 0-15.2 5.6-15.2 12.7 0 6.3 2.3 8.7 13 14.6 9.3 5 13 9.7 13 18.2 0 13.3-12.9 22.3-28.3 22.3-7.7 0-13.3-1.1-18.7-2.9l3.1-8.4c5.3 2 11 3.3 17 3.3 10 0 16.9-5.2 16.9-13 0-5.6-1.3-8.3-12.3-14.3C432 12 428 7.1 428-1.5c0-12.2 10.3-21.7 26.2-21.7 5.7 0 10.7.9 15.2 2.4l-3 7.7z"/></g><g id="g188" transform="translate(349.287 791.817)"><path id="path190" class="st1" d="M500.9-15.9c-12.5 0-26.6 19.5-30.3 38.8l-3.4 18c4.3 1.7 9.6 3 14.6 3 22.2 0 30.5-23.5 30.5-41.6-.1-12.9-4.3-18.2-11.4-18.2m-19.9 67c-6.4 0-11-.9-15.6-1.9l-5.9 29.3h-9L470.1-22h8.4L475-3.7c6.6-11.3 16.2-19.9 27.6-19.9 13.4 0 19.5 10 19.5 24.6 0 22.2-12.5 50.1-41.1 50.1"/></g></g></g><g transform="matrix(3.02852 0 0 3.02852 -638.905 -2130.023)" id="g192"><defs><path id="SVGID_3_" d="m215.1 820.5-4.1 21.3v.1h79.6c18 0 35.7-8.3 48.8-21.3l-124.3-.1z"/></defs><clipPath id="SVGID_4_"><use xlink:href="#SVGID_3_" style="overflow:visible"/></clipPath><g id="g194" style="clip-path:url(#SVGID_4_)"><g id="g200"><g id="g202"><defs><path id="SVGID_5_" transform="rotate(-45.001 275.16 831.208)" d="M114.8 670.9h320.7v320.7H114.8z"/></defs><clipPath id="SVGID_6_"><use xlink:href="#SVGID_5_" style="overflow:visible"/></clipPath><g id="g204" style="clip-path:url(#SVGID_6_)"><linearGradient id="path216_1_" gradientUnits="userSpaceOnUse" x1="454.96" y1="872.684" x2="459.447" y2="872.684" gradientTransform="scale(126.9754 -126.9754) rotate(45 1290.04 -114.027)"><stop offset="0" style="stop-color:#127bca"/><stop offset="1" style="stop-color:#254aa5"/></linearGradient><path id="path216" d="m215.1 820.5-4.1 21.3v.1h79.6c18 0 35.7-8.3 48.8-21.3l-124.3-.1z" style="fill:url(#path216_1_)"/></g></g></g></g></g><g transform="matrix(3.02852 0 0 3.02852 -638.905 -2130.023)" id="g218"><defs><path id="SVGID_7_" d="m237.9 703.3-3.6 18.5h5.8l2.6 2.6h-8.9l-.6 3h12.5l3.5 3.5h-16.7l-.8 4h21.5l4.6 4.6h-27l-1.1 5.4h33.5l6.3 6.3h-41l-1.4 7.3H277l8.6 8.6h-60.2l-2 10.1h72.2l12 12H221l-2.8 14.3H322l17.2 17.1c9.9-9.9 17.1-22.4 19.8-36l4.6-23.8c6.1-31.4-14.2-57-45.4-57.4l-80.3-.1z"/></defs><clipPath id="SVGID_8_"><use xlink:href="#SVGID_7_" style="overflow:visible"/></clipPath><g id="g220" style="clip-path:url(#SVGID_8_)"><g id="g226"><g id="g228"><defs><path id="SVGID_9_" transform="rotate(-45.001 294.207 761.932)" d="M6.4 474.1H582v575.6H6.4z"/></defs><clipPath id="SVGID_10_"><use xlink:href="#SVGID_9_" style="overflow:visible"/></clipPath><g id="g230" style="clip-path:url(#SVGID_10_)"><linearGradient id="path242_1_" gradientUnits="userSpaceOnUse" x1="454.96" y1="872.889" x2="459.447" y2="872.889" gradientTransform="scale(126.9756 -126.9756) rotate(45 1289.969 -114.056)"><stop offset="0" style="stop-color:#127bca"/><stop offset="1" style="stop-color:#254aa5"/></linearGradient><path id="path242" d="m237.9 703.3-3.6 18.5h5.8l2.6 2.6h-8.9l-.6 3h12.5l3.5 3.5h-16.7l-.8 4h21.5l4.6 4.6h-27l-1.1 5.4h33.5l6.3 6.3h-41l-1.4 7.3H277l8.6 8.6h-60.2l-2 10.1h72.2l12 12H221l-2.8 14.3H322l17.2 17.1c9.9-9.9 17.1-22.4 19.8-36l4.6-23.8c6.1-31.4-14.2-57-45.4-57.4l-80.3-.1z" style="fill:url(#path242_1_)"/></g></g></g></g></g><g transform="matrix(3.02852 0 0 3.02852 -638.905 -2130.023)" id="g244"><g id="g246"><g id="g252" transform="translate(263.919 784.36)"><path id="path254" d="M75.5 36.2z" style="fill:#fff"/></g><g id="g256" transform="translate(332.053 780.666)"><path id="path258" class="st1" d="M415 62c-4.6 0-8-3.8-8-8.3 0-5.1 4-9 8.8-9 4.8 0 8.1 3.8 8.1 8.1 0 5.4-4 9.2-8.9 9.2"/></g></g></g></svg>