<?xml version="1.0" encoding="iso-8859-1"?>
<!-- Generator: Adobe Illustrator 29.0.0, SVG Export Plug-In . SVG Version: 9.03 Build 54978)  -->
<svg version="1.1" id="Camada_1" xmlns="http://www.w3.org/2000/svg" xmlns:xlink="http://www.w3.org/1999/xlink" x="0px" y="0px"
	 viewBox="0 0 1920 1080" style="enable-background:new 0 0 1920 1080;" xml:space="preserve">
<g>
	<g>
		<path d="M1134,366v348H786V366H1134z M951.795,372.294c-132.815,4.708-208.142,155.709-131.609,265.021
			c68.565,97.932,217.139,94.257,280.23-7.399C1171.568,515.271,1086.295,367.526,951.795,372.294z"/>
		<path style="fill:#FFFFFF;" d="M951.795,372.294c134.501-4.768,219.773,142.977,148.621,257.622
			c-63.091,101.656-211.664,105.331-280.23,7.399C743.653,528.003,818.979,377.001,951.795,372.294z M941.799,377.299
			c-109.58,8.562-177.982,127.773-134.657,228.058c47.912,110.903,197.689,134.053,275.83,41.115
			C1178.191,533.225,1088.796,365.814,941.799,377.299z"/>
		<path d="M941.799,377.299c146.997-11.485,236.392,155.926,141.174,269.174c-78.141,92.938-227.919,69.788-275.83-41.115
			C763.818,505.073,832.219,385.861,941.799,377.299z M973.99,405c-5.33-3.706-8.343-16.37-12.511-19.978
			c-1.219-1.055-1.814-1.291-3.464-1.018l-2.01,27.002l2.992,0.001c0.659-0.652,0.697-16.128,1.002-18.524
			c0.177-1.389,0.534-2.894,1.987-1.479c2.076,3.77,8.082,17.864,10.505,20.007c1.45,1.282,2.749,1.087,4.506,0.993l1.768-25.547
			l-3.758-1.451L973.99,405z M938.83,386.192l-4.369,0.773L928,413.99l3.889-0.108l2.088-8.405c2.972-0.756,8.289-2.611,11.02-0.967
			c1.123,0.676,4.439,9.035,6.998,6.485C953.431,409.564,939.893,389.583,938.83,386.192z M1009.996,400.994
			c-3.348-17.721-25.087-12.834-25.07,4.509c0.009,9.313,9.724,14.688,17.791,10.71c2.961-1.46,6.749-6.444,1.752-5.911
			c-1.746,0.186-4.233,6.618-12.23,2.958c-5.228-2.392-3.872-13.976-0.255-17.778c4.996-5.252,14.493-1.976,14.084,5.455
			L1009.996,400.994z M916.007,405.019c6.052-0.594,5.45-10.488,0.975-12.494c-3.103-1.391-18.269,1.962-18.923,4.092l7.038,24.292
			c1.898,0.128,3.055,0.934,2.926-1.414c-0.177-3.216-2.232-7.274-3.027-10.483c11.374-5.069,12.588,6.937,21.998,6.983
			c1.37-1.213-6.387-7.222-7.493-8.031C917.693,406.641,915.275,407.857,916.007,405.019z M1037.997,406.014l-16.436-8.006
			L1009,421.986l17.479,8.017l1.037-2.01l-13.435-7.648c-0.033-2.235,1.992-7.307,4.373-7.352c3.602,0.902,6.814,3.648,10.234,4.83
			c0.956,0.331,2.89,2.012,3.306-0.338c0.436-2.462-10.745-6.786-12.995-7.499l3.971-7.544l12.703,6.44L1037.997,406.014z
			 M885.982,403.006c-1.535-0.294-3.03,0.735-2.882,2.349c0.502,5.485,17.099,17.919,6.27,23.508
			c-10.57,5.455-12.289-10.525-17.843-14.889c-1.936-1.521-2.036-1.179-3.531,0.55c5.263,7.097,10.146,22.373,20.989,17.971
			C905.436,425.814,890.165,412.575,885.982,403.006z M1052.01,445l8.827-20.69l-3.337-4.279l-18.48,19.47
			c1.275,1.683,2.015,1.926,3.983,1.007c2.293-1.071,8.931-11.708,12.502-13.502c-0.036,5.923-6.762,13.482-7.327,18.748
			c-0.185,1.719-0.109,2.183,1.344,3.251L1068.99,439c1.891,2.014-15.662,14.318-12.985,16.995c2.021,0.434,2.67-0.445,4.04-1.45
			c5.628-4.13,10.014-12.671,15.927-17.045l-4.014-3.086L1052.01,445z M857.726,423.196c-6.749,0.892-14.401,13-6.707,16.276
			c7.444,3.17,14.71-6.629,18.995-4.011c4.608,2.815-2.071,11.219-6.588,11.532c-1.82,0.126-6.059-3.106-6.422-0.479
			c-0.77,5.577,14.479,4.691,17.347-5.724c1.868-6.782-4.096-9.959-10.386-8.315c-2.75,0.719-16.031,10.134-12.781-0.767
			c2.194-7.361,12.718-2.492,12.795-6.209C862.554,423.927,859.776,422.925,857.726,423.196z M997.025,650.99
			c54.971-18.187,86.975-75.215,76.66-132.175c-14.879-82.163-111.171-123.146-180.993-76.624
			c-69.797,46.504-70.216,149.374-0.6,196.217c2.482,1.67,15.793,10.222,17.878,8.564l0.974-2.487
			c-62.318-29.309-87.166-108.473-47.757-166.799c38.354-56.764,117.347-68.045,169.34-22.713
			c65.269,56.907,44.605,163.954-36.537,192.04L997.025,650.99z M842.995,445.005c-13.21-4.268-20.321,19.616-5.554,16.957
			c3.897-0.702,10.083-9.239,13.55-7.53c4.704,2.319,1.019,11.318-3.76,12.361c-2.779,0.606-4.504-1.611-6.226,0.722
			c-0.363,2.048,1.95,2.427,3.483,2.566c11.044,1.005,17.127-16.811,6.773-18.904c-7.58-1.532-12.46,9.67-17.24,7.368
			c-5.381-2.592,1.985-13.464,7.999-9.994L842.995,445.005z M1087.959,453.017l-27.956,5.99c0.147,6.252,8.364,0.496,10.039,1.469
			l5.8,9.872l-4.505,6.154l2.168,3.493c2.913-6.985,12.308-15.837,14.76-22.324C1089.021,455.673,1088.512,454.888,1087.959,453.017
			z M1087,495.99c1.998-4.073,13.313-18.099,13.062-21.47c-0.099-1.323-0.626-1.715-1.556-2.496
			c-2.849,2.602-22.365,8.685-23.36,10.115c-0.67,0.963-0.776,3.197,1.348,2.871c3.161-0.485,16.984-8.202,18.505-7
			c-2.099,4.634-13.409,17.309-13.056,21.493c0.108,1.277,0.638,1.72,1.549,2.473l22.915-9.887c2.021-3.658-0.219-3.567-3.437-2.618
			C1100.537,490.189,1088.138,496.919,1087,495.99z M845.995,475.005l-28.325-1.048c-0.901,0.224-1.621,2.59-1.469,3.393
			c0.256,1.352,17.924,19.574,19.299,19.629c0.472,0.019,2.365-2.085,1.018-2.995c-6.103-4.215-5.781-7.646-1.755-13.721
			c2.912-4.393,6.016-1.425,10.175-1.296L845.995,475.005z M919,485h-5v41h5V485z M957.995,496.995
			c-0.263-16.516-31.391-16.594-29.048,0.557c1.61,11.781,25.036,7.766,25.128,16.923c0.109,10.817-22.652,9.077-22.083-2.481
			l-4.981,1.029c0.161,18.503,35.515,17.191,31.761-1.289c-2.431-11.969-24.416-7.237-24.833-16.205
			c-0.335-7.203,11.45-8.129,16.121-4.093C953.472,494.384,951.466,498.529,957.995,496.995z M978.726,485.226
			c-7.791,1.593-13.064,9.734-13.71,17.282c-2.544,29.746,35.342,31.045,37.985,6.997
			C1004.749,493.607,995.457,481.804,978.726,485.226z M830.986,516.026c-12.181,1.284-15.781-7.491-23.975-14.025
			c-3.274,3.385,8.807,10.664,9.987,13.987l-13.853,5.154l-0.139,3.854c10.018-3.82,16.806-9.579,27.988-4.999L830.986,516.026z
			 M1107.011,527.999c3.127-1.215,5.366-3.072,5.925-6.554c3.952-24.647-33.742-20.427-26.169,2.288
			c0.281,0.842,4.062,6.878,4.422,7.09c0.99,0.582,10.302-0.911,10.562-2.276l-1.756-10.542l-2.89,1.669l0.896,7.321
			c-5.336,1.048-8.153-1.324-8.937-6.561c-2.451-16.372,24.202-16.519,20.918,0.04
			C1109.296,523.925,1104.956,523.925,1107.011,527.999z M802,531v21l2.996,0.005L805,543h24v-3h-22.5
			c-2.791-1.24-0.875-8.406-1.504-9.005L802,531z M896.955,565.035c-0.439-0.43-11.877,1.343-11.93,2.458
			c9.037,16.503,32.011,11.119,33.964-8.005c1.67-16.356-4.282-28.758-22.513-26.51c-22.893,2.824-10.399,41.58,10.514,25.022
			c0.715,4.206-2.04,14.14-7.716,11.304C896.43,567.883,897.295,565.368,896.955,565.035z M936.74,533.24
			c-13.976,2.378-14.45,22.657-10.79,33.309c2.025,5.893,4.265,8.11,10.401,9.597c18.453,4.469,24.052-9.671,22.523-25.525
			C957.574,537.13,950.533,530.893,936.74,533.24z M976.739,533.241c-17.596,3.01-17.613,39.657,0.199,43.312
			c20.286,4.162,24.772-16.356,20.816-31.807C995.121,534.462,986.581,531.558,976.739,533.241z M1031,533l-10.295-0.018
			c-3.215,6.069-7.812,9.543-14.569,11.154L1006.01,554l12.99-6v28h12V533z M1114,537h-26v20h3v-17h9v15h3v-15h8v16h3V537z
			 M830.004,556.005c-0.831-0.848-21.056,2.204-23.572,2.927c-1.299,0.373-3.87,0.37-3.427,2.553
			c0.429,2.113,2.718,0.923,3.783,0.854c7.376-0.482,15.189-2.357,22.54-3.325L830.004,556.005z M1088.005,576.01
			c2.541,0.017,4.926-0.891,7.455-1.05c4.616-0.292,18.056,2.412,17.376-4.498l-25.832-7.457l0.666,3.012l19.324,5.973
			l-22.336,0.962c-0.722,0.111-1.446,2.325-1.415,2.578c0.246,1.99,15.938,10.494,17.756,13.461l-18.601-4.981l-2.393,2.497
			l25.965,7.494l0.895-4.838L1088.005,576.01z M830.977,565.004l-2.99,0.509l2.596,12.529l-22.587,4.962l0.994,3.551l24.938-5.638
			L830.977,565.004z M835.993,584.006c-1.036-0.865-2.803,1.248-3.509,1.978c-5.678,5.872-10.668,12.688-17.017,17.997l1.525,3.547
			l28.003-1.534c-0.93-6.221-8.088-0.044-11.221-5.27c-0.452-0.754-2.765-6.698-2.755-7.253
			C831.068,590.749,839.273,586.745,835.993,584.006z M1089.079,603.067l7.845,3.532l-6.435,12.42c-0.825,1.053,1.059,2.199,2,1.979
			c0.904-0.211,8.9-15.006,8.462-16.382l-23.871-11.548l-8.075,17.927c2.191,0.177,2.128,0.422,3.31-1.206
			c1.321-1.82,5.971-12.598,7.167-12.687l7.415,4.379c-0.923,2.022-7.122,12.302-5.892,13.514c0.818,0.805,2.347,0.209,3.262-1.249
			C1086.11,610.808,1087.693,606.338,1089.079,603.067z M935.012,695.998c3.618-4.115,10.732-6.55,14.004-10.482
			c3.12-3.75,6.194-12.13,9.176-16.824c14.364-22.615,31.24-43.897,51.79-61.192c-2.355-2.974-3.096-2.856-6.311-1.334
			c-5.111,2.42-16.582,11.754-21.198,15.808c-15.652,13.748-29.36,30.783-40.973,48.007c-4.658-5.568-6.905-18.789-15.883-17.93
			c-2.983,0.285-10.566,4.813-11.609,7.463c-0.575,1.461,3.976,2.953,5.528,4.452C926.805,670.988,931.244,686.602,935.012,695.998z
			 M836.006,637.018c-0.289,6.588,11.44-2.54,13.911-4.602c4.402-3.673,8.157-6.622,5.883-12.676
			c-6.089-16.208-20.839-2.914-29.347,3.234c-0.029,1.129,0.124,3.589,1.937,2.93c5.975-2.173,17.963-17.863,23.473-7.274
			C856.622,627.778,842.276,632.94,836.006,637.018z M1060,631.01c3.592,0.197,25.247,4.061,25.996,0.474
			c-1.223-3.088-19.132-17.457-20.486-17.494l-1.061,3.037c0.569,1.251,10.774,8.036,12.865,10.158
			c0.865,0.877,2.196,0.841,1.679,2.811l-23.538-2.582c-1.013,0.156-2.717,1.939-2.447,3.057
			c0.293,1.211,17.809,14.751,19.469,15.57c1.159,0.572,2.165,1.316,2.519-0.557C1075.532,642.647,1061.443,634.439,1060,631.01z
			 M867.246,634.76c-1.431-1.539-0.651-6.217-4.242-5.754l0.592,5.028c-12.343,2.747-19.646,18.303-6.95,25.816
			c12.474,7.382,26.94-10.474,17.369-21.083C872.131,636.678,868.29,635.882,867.246,634.76z M1043.981,638.999l-2.526,2.983
			l14.51,16.585c0.569,2.514-9.287,4.899-4.472,8.408c2.395-1.959,15.9-12.337,15.501-14.46c-0.136-0.725-1.734-2.134-2.487-0.511
			l-6.011,4.979L1043.981,638.999z"/>
		<path style="fill:#FFFFFF;" d="M997.025,650.99l-1.034-3.977c81.141-28.086,101.805-135.132,36.537-192.04
			c-51.993-45.332-130.986-34.051-169.34,22.713c-39.409,58.326-14.561,137.491,47.757,166.799l-0.974,2.487
			c-2.084,1.658-15.396-6.894-17.878-8.564c-69.617-46.843-69.197-149.713,0.6-196.217c69.823-46.522,166.115-5.539,180.993,76.624
			C1084,575.775,1051.996,632.803,997.025,650.99z"/>
		<path style="fill:#FFFFFF;" d="M935.012,695.998c-3.768-9.396-8.207-25.009-15.476-32.032c-1.552-1.499-6.103-2.991-5.528-4.452
			c1.043-2.65,8.626-7.178,11.609-7.463c8.978-0.859,11.225,12.362,15.883,17.93c11.613-17.224,25.321-34.259,40.973-48.007
			c4.615-4.054,16.086-13.388,21.198-15.808c3.215-1.522,3.956-1.64,6.311,1.334c-20.55,17.295-37.426,38.577-51.79,61.192
			c-2.982,4.694-6.055,13.074-9.176,16.824C945.744,689.448,938.63,691.882,935.012,695.998z"/>
		<path style="fill:#FFFFFF;" d="M936.74,533.24c13.793-2.347,20.834,3.89,22.135,17.381c1.529,15.854-4.071,29.994-22.523,25.525
			c-6.137-1.486-8.377-3.704-10.401-9.597C922.291,555.897,922.764,535.618,936.74,533.24z M944.741,567.728
			c3.266-3.108,3.475-23.02-0.147-25.814c-10.503-8.1-10.578,21.807-5.921,26.169C940.309,569.169,943.277,569.121,944.741,567.728z
			"/>
		<path style="fill:#FFFFFF;" d="M976.739,533.241c9.842-1.683,18.382,1.22,21.015,11.504c3.956,15.451-0.53,35.969-20.816,31.807
			C959.126,572.898,959.142,536.251,976.739,533.241z M979.703,541.164c-7.076,2.122-4.866,36.789,4.862,25.896
			C988.567,562.579,989.436,538.245,979.703,541.164z"/>
		<path style="fill:#FFFFFF;" d="M896.955,565.035c0.34,0.333-0.525,2.848,2.319,4.269c5.675,2.836,8.43-7.098,7.716-11.304
			c-20.913,16.558-33.407-22.198-10.514-25.022c18.231-2.249,24.183,10.154,22.513,26.51c-1.953,19.124-24.927,24.508-33.964,8.005
			C885.078,566.378,896.515,564.604,896.955,565.035z M899.743,540.149c-7.956,1.547-4.893,15.228,1.6,14.639
			C909.597,554.04,907.947,538.554,899.743,540.149z"/>
		<path style="fill:#FFFFFF;" d="M1031,533v43h-12v-28l-12.99,6l0.125-9.863c6.758-1.612,11.354-5.085,14.569-11.154L1031,533z"/>
		<path style="fill:#FFFFFF;" d="M978.726,485.226c16.731-3.421,26.023,8.382,24.276,24.279
			c-2.643,24.048-40.529,22.749-37.985-6.997C965.661,494.96,970.934,486.819,978.726,485.226z M981.744,489.236
			c-16.661,2.666-15.141,33.373,2.722,32.81C1003.99,521.431,1002.332,485.943,981.744,489.236z"/>
		<path style="fill:#FFFFFF;" d="M957.995,496.995c-6.53,1.535-4.523-2.611-7.935-5.559c-4.671-4.036-16.455-3.11-16.121,4.093
			c0.417,8.968,22.401,4.236,24.833,16.205c3.754,18.48-31.599,19.792-31.761,1.289l4.981-1.029
			c-0.569,11.559,22.192,13.298,22.083,2.481c-0.092-9.157-23.518-5.143-25.128-16.923
			C926.604,480.401,957.732,480.478,957.995,496.995z"/>
		<path style="fill:#FFFFFF;" d="M1052.01,445l19.948-10.586l4.014,3.086c-5.913,4.374-10.298,12.915-15.927,17.045
			c-1.37,1.005-2.019,1.884-4.04,1.45c-2.677-2.677,14.876-14.981,12.985-16.995l-19.469,10.003
			c-1.453-1.068-1.528-1.532-1.344-3.251c0.566-5.266,7.291-12.825,7.327-18.748c-3.571,1.794-10.209,12.431-12.502,13.502
			c-1.968,0.919-2.708,0.676-3.983-1.007l18.48-19.47l3.337,4.279L1052.01,445z"/>
		<path style="fill:#FFFFFF;" d="M1088.005,576.01l18.861,13.152l-0.895,4.838l-25.965-7.494l2.393-2.497L1101,588.99
			c-1.819-2.967-17.51-11.471-17.756-13.461c-0.031-0.253,0.693-2.467,1.415-2.578l22.336-0.962l-19.324-5.973l-0.666-3.012
			l25.832,7.457c0.68,6.91-12.76,4.207-17.376,4.498C1092.931,575.12,1090.546,576.028,1088.005,576.01z"/>
		<path style="fill:#FFFFFF;" d="M867.246,634.76c1.044,1.122,4.885,1.918,6.768,4.006c9.572,10.609-4.894,28.465-17.369,21.083
			c-12.696-7.513-5.393-23.069,6.95-25.816l-0.592-5.028C866.596,628.543,865.815,633.221,867.246,634.76z M864.887,638.115
			c-7.2-0.844-13.911,8.518-10.653,15.147c7.181,14.612,30.419-6.243,13.774-15.26l-0.508,4.978L864.887,638.115z"/>
		<path style="fill:#FFFFFF;" d="M916.007,405.019c-0.732,2.838,1.687,1.623,3.495,2.945c1.106,0.809,8.864,6.819,7.493,8.031
			c-9.41-0.046-10.624-12.052-21.998-6.983c0.795,3.209,2.851,7.267,3.027,10.483c0.129,2.348-1.028,1.542-2.926,1.414
			l-7.038-24.292c0.654-2.13,15.82-5.483,18.923-4.092C921.457,394.53,922.059,404.424,916.007,405.019z M915.755,402.763
			c2.029-2.03,1.652-6.702-1.478-7.601c-2.019-0.58-11.679,1.513-12.155,3.415l1.922,7.401
			C904.671,406.431,914.831,403.688,915.755,402.763z"/>
		<path style="fill:#FFFFFF;" d="M973.99,405l1.015-19.995l3.758,1.451l-1.768,25.547c-1.757,0.094-3.056,0.289-4.506-0.993
			c-2.423-2.143-8.429-16.236-10.505-20.007c-1.453-1.416-1.81,0.089-1.987,1.479c-0.305,2.396-0.342,17.872-1.002,18.524
			l-2.992-0.001l2.01-27.002c1.65-0.273,2.245-0.037,3.464,1.018C965.647,388.629,968.66,401.294,973.99,405z"/>
		<path style="fill:#FFFFFF;" d="M1060,631.01c1.443,3.429,15.532,11.637,14.996,14.474c-0.354,1.873-1.359,1.129-2.519,0.557
			c-1.66-0.819-19.175-14.359-19.469-15.57c-0.27-1.118,1.434-2.901,2.447-3.057l23.538,2.582c0.517-1.97-0.814-1.934-1.679-2.811
			c-2.091-2.121-12.297-8.907-12.865-10.158l1.061-3.037c1.354,0.037,19.263,14.405,20.486,17.494
			C1085.247,635.071,1063.593,631.207,1060,631.01z"/>
		<path style="fill:#FFFFFF;" d="M1087,495.99c1.138,0.929,13.537-5.801,15.971-6.519c3.217-0.949,5.458-1.04,3.437,2.618
			l-22.915,9.887c-0.911-0.753-1.441-1.196-1.549-2.473c-0.354-4.184,10.957-16.858,13.056-21.493
			c-1.521-1.202-15.343,6.515-18.505,7c-2.124,0.326-2.018-1.908-1.348-2.871c0.995-1.43,20.511-7.513,23.36-10.115
			c0.93,0.781,1.458,1.173,1.556,2.496C1100.313,477.891,1088.999,491.917,1087,495.99z"/>
		<path style="fill:#FFFFFF;" d="M1107.011,527.999c-2.055-4.073,2.285-4.074,2.97-7.525c3.285-16.559-23.368-16.411-20.918-0.04
			c0.784,5.237,3.601,7.609,8.937,6.561l-0.896-7.321l2.89-1.669l1.756,10.542c-0.259,1.365-9.572,2.858-10.562,2.276
			c-0.36-0.212-4.142-6.248-4.422-7.09c-7.573-22.715,30.121-26.936,26.169-2.288
			C1112.377,524.927,1110.137,526.784,1107.011,527.999z"/>
		<path style="fill:#FFFFFF;" d="M1089.079,603.067c-1.386,3.27-2.969,7.741-4.812,10.678c-0.915,1.458-2.444,2.055-3.262,1.249
			c-1.231-1.212,4.968-11.492,5.892-13.514l-7.415-4.379c-1.196,0.089-5.846,10.867-7.167,12.687
			c-1.182,1.628-1.119,1.383-3.31,1.206l8.075-17.927l23.871,11.548c0.438,1.376-7.558,16.171-8.462,16.382
			c-0.941,0.22-2.825-0.926-2-1.979l6.435-12.42L1089.079,603.067z"/>
		<path style="fill:#FFFFFF;" d="M842.995,445.005l-0.974,3.546c-6.014-3.47-13.38,7.402-7.999,9.994
			c4.78,2.302,9.66-8.9,17.24-7.368c10.354,2.093,4.271,19.908-6.773,18.904c-1.534-0.139-3.846-0.518-3.483-2.566
			c1.722-2.332,3.447-0.115,6.226-0.722c4.779-1.043,8.465-10.041,3.76-12.361c-3.467-1.709-9.654,6.828-13.55,7.53
			C822.674,464.621,829.785,440.738,842.995,445.005z"/>
		<path style="fill:#FFFFFF;" d="M1037.997,406.014l-2.323,2.869l-12.703-6.44l-3.971,7.544c2.25,0.713,13.431,5.036,12.995,7.499
			c-0.416,2.35-2.35,0.669-3.306,0.338c-3.42-1.182-6.631-3.928-10.234-4.83c-2.381,0.046-4.406,5.118-4.373,7.352l13.435,7.648
			l-1.037,2.01L1009,421.986l12.561-23.978L1037.997,406.014z"/>
		<path style="fill:#FFFFFF;" d="M857.726,423.196c2.05-0.271,4.828,0.731,6.254,2.304c-0.077,3.718-10.601-1.151-12.795,6.209
			c-3.25,10.901,10.031,1.486,12.781,0.767c6.29-1.645,12.254,1.533,10.386,8.315c-2.868,10.415-18.117,11.301-17.347,5.724
			c0.363-2.627,4.601,0.605,6.422,0.479c4.517-0.314,11.196-8.717,6.588-11.532c-4.285-2.618-11.551,7.18-18.995,4.011
			C843.326,436.196,850.977,424.088,857.726,423.196z"/>
		<polygon style="fill:#FFFFFF;" points="1114,537 1114,556 1111,556 1111,540 1103,540 1103,555 1100,555 1100,540 1091,540 
			1091,557 1088,557 1088,537 		"/>
		<path style="fill:#FFFFFF;" d="M885.982,403.006c4.183,9.569,19.454,22.808,3.003,29.488
			c-10.843,4.403-15.726-10.874-20.989-17.971c1.495-1.728,1.594-2.071,3.531-0.55c5.554,4.364,7.273,20.344,17.843,14.889
			c10.829-5.589-5.768-18.023-6.27-23.508C882.952,403.741,884.447,402.711,885.982,403.006z"/>
		<path style="fill:#FFFFFF;" d="M938.83,386.192c1.063,3.392,14.601,23.372,13.165,24.803c-2.559,2.55-5.875-5.809-6.998-6.485
			c-2.731-1.644-8.047,0.212-11.02,0.967l-2.088,8.405L928,413.99l6.46-27.026L938.83,386.192z M942.997,400.993l-5.492-10.988
			L934,401.99L942.997,400.993z"/>
		<path style="fill:#FFFFFF;" d="M1009.996,400.994l-3.929-0.057c0.409-7.431-9.087-10.707-14.084-5.455
			c-3.616,3.801-4.973,15.385,0.255,17.778c7.997,3.66,10.485-2.772,12.23-2.958c4.998-0.532,1.21,4.451-1.752,5.911
			c-8.067,3.978-17.782-1.397-17.791-10.71C984.908,388.16,1006.648,383.273,1009.996,400.994z"/>
		<path style="fill:#FFFFFF;" d="M836.006,637.018c6.27-4.078,20.616-9.24,15.856-18.388c-5.51-10.589-17.498,5.101-23.473,7.274
			c-1.812,0.659-1.966-1.801-1.937-2.93c8.508-6.148,23.258-19.442,29.347-3.234c2.274,6.054-1.481,9.003-5.883,12.676
			C847.445,634.478,835.717,643.606,836.006,637.018z"/>
		<rect x="914" y="485" style="fill:#FFFFFF;" width="5" height="41"/>
		<path style="fill:#FFFFFF;" d="M1087.959,453.017c0.553,1.871,1.062,2.656,0.306,4.655c-2.452,6.487-11.847,15.339-14.76,22.324
			l-2.168-3.493l4.505-6.154l-5.8-9.872c-1.676-0.974-9.892,4.783-10.039-1.469L1087.959,453.017z M1077.016,467
			c1.019,0.701,8.814-10.127,7.974-10.999l-11.985,3.005L1077.016,467z"/>
		<path style="fill:#FFFFFF;" d="M835.993,584.006c3.28,2.738-4.926,6.743-4.974,9.466c-0.01,0.555,2.303,6.499,2.755,7.253
			c3.133,5.226,10.291-0.951,11.221,5.27l-28.003,1.534l-1.525-3.547c6.349-5.309,11.339-12.125,17.017-17.997
			C833.19,585.255,834.957,583.141,835.993,584.006z M831.995,603.995c-0.42-1.833-2.264-8.485-4.474-7.985L819,604.99
			L831.995,603.995z"/>
		<path style="fill:#FFFFFF;" d="M845.995,475.005l-1.057,3.963c-4.159-0.129-7.263-3.097-10.175,1.296
			c-4.026,6.075-4.348,9.506,1.755,13.721c1.347,0.91-0.546,3.014-1.018,2.995c-1.375-0.055-19.042-18.276-19.299-19.629
			c-0.152-0.803,0.568-3.169,1.469-3.393L845.995,475.005z M833,478.01l-13-1l8.513,8.981c2.155,0.369,1.157-0.431,1.574-1.379
			C831.049,482.425,831.612,480.041,833,478.01z"/>
		<path style="fill:#FFFFFF;" d="M830.986,516.026l0.008,3.971c-11.181-4.581-17.97,1.179-27.988,4.999l0.139-3.854l13.853-5.154
			c-1.18-3.323-13.261-10.602-9.987-13.987C815.205,508.535,818.805,517.31,830.986,516.026z"/>
		<path style="fill:#FFFFFF;" d="M1043.981,638.999l14.515,17.984l6.011-4.979c0.754-1.623,2.351-0.214,2.487,0.511
			c0.399,2.124-13.106,12.501-15.501,14.46c-4.815-3.51,5.041-5.895,4.472-8.408l-14.51-16.585L1043.981,638.999z"/>
		<path style="fill:#FFFFFF;" d="M802,531l2.996-0.005c0.629,0.599-1.287,7.765,1.504,9.005H829v3h-24l-0.004,9.005L802,552V531z"/>
		<polygon style="fill:#FFFFFF;" points="830.977,565.004 833.928,580.917 808.99,586.555 807.996,583.004 830.584,578.042 
			827.987,565.513 		"/>
		<path style="fill:#FFFFFF;" d="M830.004,556.005l-0.676,3.009c-7.351,0.968-15.164,2.843-22.54,3.325
			c-1.064,0.07-3.354,1.26-3.783-0.854c-0.443-2.183,2.128-2.179,3.427-2.553C808.948,558.209,829.173,555.157,830.004,556.005z"/>
		<path d="M944.741,567.728c-1.464,1.393-4.432,1.44-6.069,0.355c-4.657-4.362-4.581-34.269,5.921-26.169
			C948.216,544.708,948.007,564.62,944.741,567.728z"/>
		<path d="M979.703,541.164c9.733-2.919,8.864,21.416,4.862,25.896C974.837,577.952,972.627,543.286,979.703,541.164z"/>
		<path d="M899.743,540.149c8.204-1.596,9.854,13.891,1.6,14.639C894.85,555.377,891.787,541.697,899.743,540.149z"/>
		<path d="M981.744,489.236c20.588-3.294,22.246,32.195,2.722,32.81C966.602,522.61,965.083,491.902,981.744,489.236z"/>
		<path d="M864.887,638.115l2.613,4.865l0.508-4.978c16.644,9.017-6.594,29.871-13.774,15.26
			C850.976,646.633,857.686,637.271,864.887,638.115z"/>
		<path d="M915.755,402.763c-0.924,0.925-11.084,3.668-11.711,3.214l-1.922-7.401c0.476-1.902,10.136-3.995,12.155-3.415
			C917.407,396.061,917.784,400.733,915.755,402.763z"/>
		<polygon points="942.997,400.993 934,401.99 937.505,390.005 		"/>
		<path d="M1077.016,467l-4.011-7.994L1084.99,456C1085.83,456.872,1078.036,467.701,1077.016,467z"/>
		<path d="M831.995,603.995L819,604.99l8.521-8.981C829.731,595.509,831.575,602.161,831.995,603.995z"/>
		<path d="M833,478.01c-1.388,2.031-1.951,4.415-2.913,6.603c-0.417,0.948,0.581,1.748-1.574,1.379L820,477.01L833,478.01z"/>
	</g>
</g>
</svg>
