<?xml version="1.0" encoding="UTF-8"?>
<svg xmlns="http://www.w3.org/2000/svg" version="1.1" viewBox="0 0 1920 1080">
  <defs>
    <style>
      .cls-1 {
        fill: #fff;
      }
    </style>
  </defs>
  <!-- Generator: Adobe Illustrator 28.7.1, SVG Export Plug-In . SVG Version: 1.2.0 Build 142)  -->
  <g>
    <g id="Camada_1">
      <g>
        <path class="cls-1" d="M330,679v-279h1259.25v279H330ZM548.93,503.33c153.53,6.65,306.87,17.21,460.56,20.92-.6-.75-1.25-1.01-1.92-1.06-7.73-.52-15.45-1.14-23.19-1.5-32.45-1.5-64.91-2.84-97.36-4.4-40.45-1.94-80.8-5.19-120.94-10.72-24.03-3.31-47.94-7.37-70.89-15.63-8.26-2.98-16.36-6.36-22.75-12.66-7.46-7.37-7.29-14.37.08-21.78,6.98-7.02,16.04-10.07,25.02-13.04,17.88-5.9,36.43-9,55.08-10.7,23.87-2.18,47.83-3.66,71.78-4.52,20.59-.74,41.24-.56,61.84-.06,17.83.44,35.78.84,53.43,3.17,29.32,3.87,58.54,8.71,87.61,14.2,28.97,5.47,57.47,13.1,85.43,22.55,10.01,3.38,19.86,7.24,29.79,10.89-.34-.56-.8-.89-1.31-1.14-27.47-13.22-55.56-24.98-84.35-35-40.85-14.22-82.59-24.87-125.36-31.59-32.02-5.03-64.18-7.97-96.56-7.79-19.59.11-39.2,1.01-58.77,2.08-16.81.92-33.63,2.16-50.36,4.02-23.93,2.65-47.83,5.64-71.64,9.14-28.92,4.25-57.81,8.79-86.59,13.9-56.11,9.95-112.01,20.96-167.27,35-8.11,2.06-16.13,4.48-24.25,6.53-4.09,1.03-6.08,3.14-5.93,7.55.16,4.49.03,9.02-.48,13.48-.44,3.91-1.05,7.95-2.5,11.56-4.15,10.32-8.77,20.45-13.19,30.66-.47,1.1-.87,2.22-1.31,3.34,1.37-.7,2.14-1.75,2.84-2.84,6.73-10.54,13.51-21.04,20.1-31.66,1.64-2.64,3.51-3.72,6.64-3.74,21.87-.17,43.74-.55,65.62-.8,7.35-.09,14.71-.01,22.06-.01,0-.38,0-.75.01-1.13-4.31-.72-8.64-1.31-12.91-2.18-11.87-2.43-23.75-4.81-35.53-7.59-4.29-1.01-4.44-2.8-1.18-5.83.82-.76,1.68-1.58,2.68-2.03,5.69-2.54,11.25-5.57,17.18-7.36,39.99-12.06,80.89-19.43,122.56-22.04,18.03-1.13,36.05.18,53.27,6.32,4.58,1.63,8.98,4.47,12.71,7.63,4.99,4.23,4.93,9.45.88,14.6-3.93,4.99-9.31,7.84-15,10.24-12.94,5.46-26.62,7.63-40.46,9-8.38.83-16.78,1.36-25.18,2.03ZM665.36,535.9c.17,1.6.19,2.59.39,3.55,7.6,35.53,15.25,71.06,22.79,106.61.55,2.61,1.69,3.46,4.28,3.44,7.24-.05,14.49-.02,21.73.29,3.24.14,4.38-1.35,5.1-4.12,6.58-25.26,13.16-50.51,19.88-75.73,1.92-7.22,4.35-14.31,6.41-21.49,1.04-3.62,1.77-7.34,2.86-11.91-11.72,0-22.44-.07-33.16.11-1.01.02-2.58,1.4-2.89,2.44-1.43,4.78-2.48,9.66-3.7,14.5-.71,2.81-1.49,5.6-2.23,8.41-1.27-1.19-1.7-2.31-1.96-3.48-1.42-6.33-2.9-12.66-4.15-19.03-.5-2.57-1.66-3.51-4.27-3.51-8.62,0-17.23-.2-25.85-.3-1.59-.02-3.18.13-5.21.22ZM1113.68,651.77c-.31-1.11-.46-1.83-.71-2.5-4.5-12.18-9.05-24.35-13.5-36.55-1.79-4.91-1.68-4.95,3.06-6.7,8.23-3.05,10.87-6.6,11-15.38.14-9.37.24-18.74.05-28.11-.25-12.08-7.44-19.11-19.54-19.36-5.62-.12-11.24,0-16.86-.03-9.86-.05-19.73-.13-29.59-.18-1.78,0-3.62-.1-3.76,2.48-.2,3.74-.6,7.47-.65,11.21-.16,12.11-.13,24.23-.32,36.34-.28,18.24-.66,36.47-1.09,54.7-.06,2.47.89,3.35,3.26,3.35,4.5-.01,8.99.13,13.49.18,6.91.08,6.28.81,6.42-6.05.23-11.12.42-22.24.73-33.35.03-1.21.43-3,1.27-3.5,3.13-1.86,7.72.15,8.89,3.62,4.02,11.96,7.98,23.94,12.11,35.86.51,1.48,1.86,3.75,2.91,3.8,7.44.33,14.89.18,22.85.18ZM1028.89,597.24c.27,0,.55,0,.82,0,0-4.5-.02-9,0-13.5.05-7.5.41-15.01.13-22.49-.45-12-7.89-19.22-19.69-19.5-10.49-.25-20.99-.22-31.48-.6-6.72-.24-11.38,2.9-15.26,7.91-3.16,4.09-3.86,8.86-3.97,13.79-.48,21.49-1.14,42.98-1.23,64.47-.02,4.68,1.45,9.64,3.35,13.98,2.14,4.9,6.51,8.03,12.11,8.21,13.11.44,26.23.76,39.34.84,6.85.04,12.29-4.02,14.36-10.57.96-3.04,1.39-6.37,1.44-9.57.17-10.99.07-21.99.07-32.99ZM489.67,619.51c-.12,16.2,6.65,24.07,20.29,24.39,10.62.25,21.24.23,31.86.04,8.74-.15,16.41-2.72,19.87-11.76,1.18-3.08,1.83-6.5,2.02-9.81.4-6.73.19-13.5.49-20.24.34-7.74-3.22-13.27-9.63-16.95-2.98-1.71-6.41-2.82-9.78-3.59-8.28-1.89-16.63-3.43-24.96-5.09-3.02-.6-5.74-1.84-5.97-5.25-.27-4.1-.18-8.25.13-12.34.24-3.13,2.25-4.99,5.53-4.93,5.87.1,11.74.29,17.6.46,2.83.08,4.47,1.32,4.25,4.4-.19,2.62,1.25,2.75,3.35,2.33,5.38-1.09,10.76-2.28,16.2-2.91,3.54-.41,4.3-2.24,4.22-5.22-.27-9.7-7.13-18.39-16.79-19.03-13.43-.88-26.96-1.01-40.4-.48-9.64.38-16.02,6.78-17.04,16.39-.86,8.16-.62,16.46-.6,24.7.04,12.07,3.47,16.57,14.92,20.22,1.31.42,2.63.79,3.96,1.13,8.35,2.13,16.71,4.2,25.04,6.38,2.99.78,5.93,2.01,6.15,5.64.21,3.48,0,7-.18,10.49-.14,2.81-1.76,4.29-4.61,4.34-3.75.06-7.51-.06-11.24.22-6.09.46-11.28-.28-12.63-7.59-.02-.1-.17-.17-.54-.51-6.96,1.48-14.13,3-21.53,4.58ZM839.39,567.26c6.91-1.26,13.65-2.41,20.34-3.83.75-.16,1.65-1.81,1.69-2.8.33-8.67-5.46-20.45-16.76-20.88-11.84-.46-23.7-.89-35.55-.78-10.42.1-16.87,5.15-18.8,15.38-2.18,11.59-1.86,23.39,1.28,34.85.65,2.38,2.85,4.75,4.96,6.22,2.6,1.81,5.78,2.94,8.85,3.92,8.42,2.7,16.98,4.97,25.36,7.79,6.62,2.23,7.02,3.14,7,10.05,0,1.74-.25,3.49-.33,5.23-.12,2.97-1.77,4.21-4.6,4.22-5,.01-9.99.04-14.99.08-3.59.03-6.08-1.45-6.72-5.14-.39-2.24-1.58-2.42-3.48-1.98-4.13.97-8.3,1.79-12.46,2.66q-6.89,1.45-5.92,8.39c1.54,11.04,7.65,16.89,18.7,17.2,11.11.31,22.24.35,33.36.08,10.4-.24,17.85-6.94,18.78-17.31.77-8.56.6-17.22.55-25.83-.01-2.15-.87-4.41-1.8-6.42-3.71-8.04-11.06-10.73-18.95-12.41-7.21-1.53-14.46-2.88-21.69-4.3-2.9-.57-5.48-1.77-5.69-5.03-.27-4.09-.23-8.22.08-12.31.21-2.88,2.14-4.34,5.16-4.27,4.62.1,9.25.08,13.87.15,5.97.09,6.45.51,7.78,7.06ZM580.28,589.75h-.95c-.41,17.11-.73,34.23-1.29,51.33-.11,3.46.86,4.67,4.38,4.41,5.1-.37,10.23-.44,15.35-.36,2.75.04,3.68-.85,3.71-3.64.12-12.25.46-24.49.69-36.74.11-5.53.08-5.58,5.68-5.59,9.25-.02,18.5.31,27.73-.05,8.66-.34,16.98-7.69,17.39-15.36.54-10.1.92-20.25.55-30.35-.48-13-4.13-17.3-17.02-18.17-17.8-1.21-35.69-1.17-53.54-1.71-2.93-.09-2.7,1.81-2.7,3.74.01,17.49,0,34.99,0,52.48ZM1296.84,574.72c6.7-1.37,13.14-2.64,19.55-4.08.68-.15,1.52-1.24,1.65-2,1.56-9.14-5.73-19.76-14.87-20.43-11.68-.85-23.43-.76-35.16-.96-2.34-.04-4.79.05-7.02.69-8.62,2.47-12.26,9.3-13.15,17.34-.83,7.51-.57,15.18-.34,22.77.35,11.6,2.89,14.95,13.82,18.47,8.07,2.6,16.27,4.78,24.39,7.21,9.2,2.76,10.08,4.12,9.26,13.84-.05.62-.15,1.24-.18,1.87-.16,3.18-1.72,4.76-5,4.7-4.87-.09-9.74-.08-14.61-.07-3.42,0-5.81-1.3-6.47-4.89-.41-2.21-1.62-2.78-3.77-2.28-5.23,1.22-10.47,2.41-15.75,3.35-2.34.42-2.68,1.55-2.57,3.61.71,13.6,7.81,20.59,21.39,20.72,10.24.1,20.49-.04,30.73.06,9.62.09,17.01-5.87,17.91-15.5.75-8.06.67-16.21.84-24.32.2-9.7-5.05-16.92-14.38-19.37-6.88-1.8-13.87-3.16-20.82-4.67-13.55-2.94-13.05-1.37-12.93-17.44.03-4.34,1.72-5.8,6-5.82,4.5-.03,9,0,13.49.02,6.05.02,6.82.67,8,7.2ZM1232.24,653.15c-.26-1.9-.37-3.37-.68-4.81-3.15-14.89-6.3-29.78-9.51-44.66-3.92-18.17-7.94-36.32-11.76-54.51-.58-2.77-1.79-3.72-4.51-3.7-4.87.03-9.74-.12-14.6-.42-2.48-.15-3.62.78-4.16,3.15-1.28,5.6-2.72,11.16-4.11,16.73-5.43,21.8-10.87,43.6-16.28,65.4-1.76,7.11-3.44,14.24-5.1,21.14.58.49.77.77.96.78,6.86.25,13.72.57,20.57.57.79,0,1.99-1.65,2.29-2.73,1-3.6,1.72-7.29,2.47-10.96.43-2.12,1.4-3.31,3.78-3.2,3.74.17,7.49.2,11.24.21,2.42,0,3.64,1.14,4.03,3.5.61,3.69,1.24,7.39,2.12,11.03.23.94,1.38,2.35,2.14,2.37,6.83.18,13.67.11,21.11.11ZM1537.98,632.08c.28.05.56.09.83.14.25-.37.58-.7.74-1.11,5.97-14.69,10.45-29.69,9.44-45.83-.78-12.49-6.13-22.22-17.61-27.75-7-3.37-14.28-6.24-21.58-8.92-16.91-6.21-34.65-9.1-52.27-12.37-11.43-2.12-22.91-4.01-34.41-5.71-11.86-1.75-23.76-3.22-35.65-4.69-9.21-1.14-18.44-2.08-27.66-3.15-10.19-1.18-20.37-2.47-30.57-3.61-7.75-.87-15.52-1.57-23.29-2.37-11.82-1.21-23.63-2.44-35.45-3.68-6.77-.71-13.53-1.47-20.3-2.13-3.75-.36-7.51-.57-11.27-.84,10.13,2.6,20.31,4.43,30.49,6.3,13.34,2.45,26.67,4.97,40.02,7.39,10.2,1.85,20.41,3.64,30.64,5.35,9.37,1.56,18.79,2.81,28.13,4.51,6.53,1.19,12.93,3.04,19.44,4.35,5.58,1.12,11.24,1.82,16.84,2.85,14.12,2.57,28.17,5.51,42.34,7.76,15.43,2.45,30.76,5.12,45.21,11.39,13.54,5.87,25.48,13.86,34.19,26.05,8.2,11.49,11.84,24.41,11.76,38.45-.01,2.54,0,5.07,0,7.61ZM898.06,604.26s-.09,0-.13,0c0,6.62.04,13.23-.01,19.85-.06,6.75-.13,13.49-.37,20.23-.1,2.74.81,3.79,3.62,3.72,4.49-.12,9-.03,13.48.19,2.8.14,3.93-.63,3.99-3.71.47-24.46,1.12-48.93,1.72-73.39.05-2.12.26-4.25.19-6.37-.09-2.72.99-3.78,3.77-3.66,5.86.26,11.74.16,17.6.46,2.55.13,3.69-.5,3.65-3.22-.07-4.74-.01-9.5.2-14.24.13-2.79-.93-3.71-3.68-3.71-8.62,0-17.23-.16-25.85-.32-12.36-.23-24.72-.52-37.08-.77q-5.88-.12-5.96,5.92c-.05,3.75,0,7.5-.19,11.24-.15,2.84.76,4.04,3.8,4,5.61-.07,11.24.46,16.85.29,3.81-.11,4.51,1.49,4.46,4.88-.17,12.86-.07,25.73-.07,38.6ZM1404.82,643.33c2.19,2.84,3.51,5.66,5.71,7.22,12.42,8.82,25.02,17.39,37.63,25.93,4.41,2.98,9.58,1.26,11.75-3.64,2.38-5.38.99-10.61-4.42-14.36-12.4-8.62-24.86-17.17-37.53-25.39-2.86-1.85-2.95-3.26-1.74-5.89,3.37-7.35,3.46-15.15,1.75-22.77-5.8-25.89-35.11-37.81-57.74-26.63-20.96,10.35-28.95,33.97-18.56,53.5,11.55,21.73,40.36,28.39,60.35,13.96.97-.7,1.97-1.35,2.8-1.93ZM1146.87,598.11c.56,0,1.13,0,1.69,0,0-17.23-.06-34.46.06-51.68.02-3.14-.73-4.56-4.16-4.41-4.61.21-9.25.15-13.85-.17-3.41-.23-4.22,1.13-4.24,4.29-.08,12.73-.37,25.47-.62,38.2-.44,21.98-.88,43.95-1.39,65.92-.06,2.44.88,3.32,3.27,3.32,4.99,0,10,.04,14.97.4,3.31.24,4.35-.9,4.32-4.18-.12-17.23-.06-34.47-.06-51.7ZM775.71,537.19c-6.99,0-13.82-.06-20.64.1-.64.01-1.77,1.39-1.79,2.16-.1,4.6.18,9.21.1,13.81-.45,26.85-.97,53.7-1.43,80.55-.09,5.07-.01,10.15-.01,15.87,6.51,0,12.61-.04,18.7.02,2.36.02,2.52-1.43,2.57-3.2.65-20.58,1.41-41.16,1.95-61.74.35-13.36.38-26.73.54-40.1.03-2.22,0-4.43,0-7.47Z"/>
        <path d="M548.93,503.33c8.39-.67,16.8-1.2,25.18-2.03,13.84-1.38,27.52-3.54,40.46-9,5.69-2.4,11.07-5.25,15-10.24,4.05-5.15,4.12-10.37-.88-14.6-3.74-3.16-8.13-6-12.71-7.63-17.22-6.14-35.24-7.45-53.27-6.32-41.67,2.61-82.57,9.98-122.56,22.04-5.93,1.79-11.49,4.82-17.18,7.36-1,.45-1.86,1.27-2.68,2.03-3.26,3.03-3.11,4.82,1.18,5.83,11.79,2.78,23.67,5.15,35.53,7.59,4.27.88,8.61,1.46,12.91,2.18,0,.38,0,.75-.01,1.13-7.35,0-14.71-.07-22.06.01-21.87.25-43.74.63-65.62.8-3.13.02-5.01,1.1-6.64,3.74-6.59,10.62-13.38,21.12-20.1,31.66-.7,1.1-1.46,2.15-2.84,2.84.43-1.11.83-2.24,1.31-3.34,4.42-10.21,9.04-20.34,13.19-30.66,1.45-3.61,2.06-7.65,2.5-11.56.5-4.46.63-9,.48-13.48-.15-4.41,1.83-6.52,5.93-7.55,8.11-2.05,16.14-4.47,24.25-6.53,55.26-14.03,111.16-25.04,167.27-35,28.78-5.11,57.67-9.65,86.59-13.9,23.82-3.5,47.72-6.49,71.64-9.14,16.73-1.86,33.55-3.1,50.36-4.02,19.57-1.07,39.17-1.97,58.77-2.08,32.38-.19,64.54,2.76,96.56,7.79,42.77,6.72,84.51,17.37,125.36,31.59,28.79,10.02,56.87,21.79,84.35,35,.51.24.98.58,1.31,1.14-9.93-3.64-19.78-7.5-29.79-10.89-27.96-9.44-56.46-17.07-85.43-22.55-29.06-5.49-58.29-10.33-87.61-14.2-17.65-2.33-35.6-2.73-53.43-3.17-20.6-.51-41.25-.68-61.84.06-23.95.86-47.91,2.34-71.78,4.52-18.65,1.7-37.2,4.8-55.08,10.7-8.98,2.96-18.04,6.02-25.02,13.04-7.37,7.41-7.53,14.41-.08,21.78,6.38,6.31,14.49,9.69,22.75,12.66,22.95,8.27,46.86,12.32,70.89,15.63,40.13,5.53,80.48,8.78,120.94,10.72,32.45,1.56,64.91,2.9,97.36,4.4,7.74.36,15.46.97,23.19,1.5.67.05,1.32.3,1.92,1.06-153.68-3.72-307.03-14.27-460.56-20.92Z"/>
        <path d="M665.36,535.9c2.03-.09,3.62-.24,5.21-.22,8.62.09,17.23.31,25.85.3,2.61,0,3.77.94,4.27,3.51,1.24,6.37,2.73,12.69,4.15,19.03.26,1.16.69,2.29,1.96,3.48.75-2.8,1.52-5.6,2.23-8.41,1.22-4.84,2.28-9.73,3.7-14.5.31-1.05,1.88-2.42,2.89-2.44,10.72-.18,21.44-.11,33.16-.11-1.09,4.58-1.82,8.29-2.86,11.91-2.06,7.19-4.49,14.27-6.41,21.49-6.72,25.22-13.31,50.47-19.88,75.73-.72,2.77-1.87,4.26-5.1,4.12-7.23-.31-14.48-.34-21.73-.29-2.58.02-3.72-.84-4.28-3.44-7.54-35.55-15.18-71.07-22.79-106.61-.2-.95-.22-1.95-.39-3.55Z"/>
        <path d="M1113.68,651.77c-7.95,0-15.41.15-22.85-.18-1.04-.05-2.39-2.32-2.91-3.8-4.13-11.92-8.09-23.9-12.11-35.86-1.17-3.47-5.76-5.49-8.89-3.62-.84.5-1.23,2.28-1.27,3.5-.31,11.12-.5,22.23-.73,33.35-.14,6.85.48,6.12-6.42,6.05-4.5-.05-8.99-.19-13.49-.18-2.36,0-3.31-.88-3.26-3.35.42-18.23.8-36.47,1.09-54.7.19-12.11.15-24.22.32-36.34.05-3.74.46-7.47.65-11.21.13-2.58,1.98-2.49,3.76-2.48,9.86.05,19.73.13,29.59.18,5.62.03,11.24-.08,16.86.03,12.11.25,19.3,7.27,19.54,19.36.19,9.37.09,18.74-.05,28.11-.13,8.79-2.77,12.33-11,15.38-4.73,1.75-4.84,1.79-3.06,6.7,4.44,12.2,9,24.37,13.5,36.55.25.68.4,1.39.71,2.5ZM1077.89,587.16c0,.09,0,.17,0,.26,3,0,6,.08,9-.02,3.98-.13,5.43-1.42,5.64-5.44.23-4.36.2-8.75.14-13.12-.04-3.45-1.9-5.31-5.39-5.38-6-.11-11.99-.12-17.99-.27-2.39-.06-3.4.97-3.46,3.31-.15,5.86-.36,11.72-.58,17.59-.08,2.31,1.19,3.08,3.27,3.07,3.12-.02,6.24,0,9.36,0Z"/>
        <path d="M1028.89,597.24c0,11,.1,21.99-.07,32.99-.05,3.21-.48,6.53-1.44,9.57-2.07,6.55-7.52,10.62-14.36,10.57-13.12-.08-26.23-.41-39.34-.84-5.6-.19-9.97-3.32-12.11-8.21-1.9-4.34-3.37-9.3-3.35-13.98.09-21.49.75-42.98,1.23-64.47.11-4.94.8-9.71,3.97-13.79,3.88-5.01,8.54-8.15,15.26-7.91,10.49.38,20.99.35,31.48.6,11.81.28,19.24,7.49,19.69,19.5.28,7.48-.09,14.99-.13,22.49-.03,4.5,0,9,0,13.5-.27,0-.55,0-.82,0ZM1006.89,596.09c.26,0,.51,0,.77,0,0-9.11,0-18.21,0-27.32,0-5.24-.72-6-6.05-6.12-3.74-.08-7.48-.13-11.22-.12-7.29,0-8.69,1.38-8.77,8.79-.14,13.72-.22,27.45-.33,41.17-.03,3.74-.18,7.48-.12,11.22.05,3.4,1.92,5.45,5.3,5.57,5.1.18,10.22.16,15.33.03,3.4-.09,5.16-1.92,5.13-5.52-.09-9.23-.03-18.46-.03-27.69Z"/>
        <path d="M489.67,619.51c7.4-1.57,14.57-3.1,21.53-4.58.37.34.53.42.54.51,1.35,7.31,6.54,8.05,12.63,7.59,3.73-.28,7.49-.16,11.24-.22,2.85-.05,4.46-1.53,4.61-4.34.18-3.49.39-7.01.18-10.49-.22-3.63-3.17-4.86-6.15-5.64-8.33-2.18-16.7-4.26-25.04-6.38-1.33-.34-2.65-.71-3.96-1.13-11.44-3.64-14.88-8.15-14.92-20.22-.03-8.24-.26-16.53.6-24.7,1.01-9.61,7.4-16.01,17.04-16.39,13.45-.53,26.98-.41,40.4.48,9.65.64,16.52,9.33,16.79,19.03.08,2.98-.68,4.81-4.22,5.22-5.44.63-10.82,1.82-16.2,2.91-2.11.43-3.54.29-3.35-2.33.22-3.08-1.42-4.32-4.25-4.4-5.87-.17-11.74-.37-17.6-.46-3.28-.05-5.29,1.8-5.53,4.93-.32,4.1-.4,8.25-.13,12.34.22,3.42,2.95,4.65,5.97,5.25,8.33,1.67,16.68,3.2,24.96,5.09,3.37.77,6.81,1.88,9.78,3.59,6.4,3.68,9.96,9.21,9.63,16.95-.29,6.74-.09,13.51-.49,20.24-.2,3.31-.84,6.72-2.02,9.81-3.46,9.04-11.13,11.61-19.87,11.76-10.62.19-21.25.21-31.86-.04-13.64-.32-20.41-8.19-20.29-24.39Z"/>
        <path d="M839.39,567.26c-1.33-6.55-1.81-6.97-7.78-7.06-4.62-.07-9.25-.05-13.87-.15-3.01-.06-4.94,1.4-5.16,4.27-.3,4.09-.34,8.22-.08,12.31.21,3.26,2.8,4.47,5.69,5.03,7.23,1.42,14.48,2.77,21.69,4.3,7.89,1.68,15.25,4.37,18.95,12.41.92,2,1.79,4.27,1.8,6.42.04,8.61.21,17.27-.55,25.83-.93,10.36-8.38,17.06-18.78,17.31-11.11.26-22.24.23-33.36-.08-11.06-.31-17.16-6.17-18.7-17.2q-.97-6.94,5.92-8.39c4.16-.87,8.33-1.69,12.46-2.66,1.9-.45,3.09-.27,3.48,1.98.65,3.7,3.13,5.17,6.72,5.14,5-.04,9.99-.07,14.99-.08,2.83,0,4.48-1.24,4.6-4.22.07-1.75.32-3.49.33-5.23.03-6.91-.38-7.83-7-10.05-8.38-2.82-16.94-5.09-25.36-7.79-3.07-.98-6.25-2.11-8.85-3.92-2.11-1.47-4.31-3.84-4.96-6.22-3.14-11.46-3.46-23.25-1.28-34.85,1.93-10.24,8.39-15.29,18.8-15.38,11.85-.11,23.7.32,35.55.78,11.3.44,17.08,12.21,16.76,20.88-.04.99-.94,2.64-1.69,2.8-6.68,1.42-13.42,2.56-20.34,3.83Z"/>
        <path d="M580.28,589.75c0-17.49,0-34.99,0-52.48,0-1.93-.23-3.83,2.7-3.74,17.85.54,35.74.5,53.54,1.71,12.89.87,16.54,5.17,17.02,18.17.37,10.1,0,20.25-.55,30.35-.41,7.67-8.73,15.02-17.39,15.36-9.23.36-18.49.03-27.73.05-5.61.01-5.58.05-5.68,5.59-.23,12.25-.57,24.49-.69,36.74-.03,2.79-.96,3.68-3.71,3.64-5.12-.08-10.25-.02-15.35.36-3.52.26-4.5-.95-4.38-4.41.55-17.11.88-34.22,1.29-51.33h.95ZM615.28,554.85s0-.07,0-.11c-3.25,0-6.51-.2-9.73.12-.98.1-2.58,1.59-2.61,2.49-.26,6.24-.28,12.49-.11,18.73.02.87,1.51,2.4,2.36,2.43,6.73.23,13.48.28,20.22.15,3.26-.06,4.96-2.06,4.98-5.36.03-4.25.12-8.49.05-12.74-.07-3.89-1.55-5.48-5.43-5.67-3.24-.16-6.49-.03-9.74-.03Z"/>
        <path d="M1296.84,574.72c-1.18-6.53-1.95-7.18-8-7.2-4.5-.02-9-.05-13.49-.02-4.28.03-5.97,1.49-6,5.82-.13,16.07-.62,14.5,12.93,17.44,6.95,1.51,13.94,2.87,20.82,4.67,9.33,2.45,14.58,9.67,14.38,19.37-.17,8.11-.09,16.26-.84,24.32-.9,9.63-8.29,15.59-17.91,15.5-10.24-.09-20.49.05-30.73-.06-13.58-.14-20.68-7.12-21.39-20.72-.11-2.05.23-3.19,2.57-3.61,5.28-.94,10.52-2.13,15.75-3.35,2.15-.5,3.37.07,3.77,2.28.66,3.6,3.05,4.9,6.47,4.89,4.87-.01,9.74-.03,14.61.07,3.28.06,4.84-1.52,5-4.7.03-.62.13-1.24.18-1.87.82-9.72-.06-11.08-9.26-13.84-8.12-2.43-16.32-4.62-24.39-7.21-10.93-3.52-13.48-6.87-13.82-18.47-.23-7.59-.49-15.25.34-22.77.89-8.04,4.53-14.87,13.15-17.34,2.23-.64,4.68-.73,7.02-.69,11.72.2,23.48.11,35.16.96,9.15.67,16.44,11.29,14.87,20.43-.13.76-.96,1.85-1.65,2-6.41,1.44-12.85,2.71-19.55,4.08Z"/>
        <path d="M1232.24,653.15c-7.44,0-14.28.08-21.11-.11-.76-.02-1.92-1.43-2.14-2.37-.88-3.64-1.51-7.33-2.12-11.03-.39-2.36-1.61-3.5-4.03-3.5-3.75,0-7.5-.03-11.24-.21-2.38-.11-3.35,1.09-3.78,3.2-.75,3.67-1.47,7.35-2.47,10.96-.3,1.08-1.5,2.73-2.29,2.73-6.86,0-13.72-.32-20.57-.57-.19,0-.38-.29-.96-.78,1.66-6.9,3.34-14.03,5.1-21.14,5.41-21.81,10.85-43.6,16.28-65.4,1.39-5.57,2.83-11.13,4.11-16.73.54-2.37,1.68-3.3,4.16-3.15,4.86.29,9.73.44,14.6.42,2.72-.01,3.93.93,4.51,3.7,3.82,18.19,7.85,36.34,11.76,54.51,3.21,14.88,6.36,29.77,9.51,44.66.3,1.44.42,2.92.68,4.81ZM1198.53,602.21l-1.38.09c-1.1,4.22-2.2,8.43-3.45,13.25,2.47,0,4.24.25,5.88-.11.81-.18,2.07-1.64,1.93-2.26-.8-3.7-1.95-7.33-2.98-10.98Z"/>
        <path d="M1537.98,632.08c0-2.54-.01-5.07,0-7.61.08-14.04-3.55-26.96-11.76-38.45-8.7-12.19-20.65-20.19-34.19-26.05-14.45-6.26-29.77-8.93-45.21-11.39-14.17-2.25-28.23-5.19-42.34-7.76-5.6-1.02-11.26-1.72-16.84-2.85-6.51-1.31-12.91-3.16-19.44-4.35-9.34-1.7-18.76-2.95-28.13-4.51-10.22-1.71-20.44-3.5-30.64-5.35-13.35-2.42-26.68-4.93-40.02-7.39-10.18-1.87-20.36-3.71-30.49-6.3,3.76.27,7.52.48,11.27.84,6.77.66,13.53,1.42,20.3,2.13,11.81,1.23,23.63,2.46,35.45,3.68,7.76.8,15.53,1.5,23.29,2.37,10.2,1.14,20.38,2.43,30.57,3.61,9.22,1.07,18.45,2.01,27.66,3.15,11.9,1.47,23.8,2.93,35.65,4.69,11.5,1.7,22.98,3.59,34.41,5.71,17.62,3.27,35.35,6.16,52.27,12.37,7.3,2.68,14.57,5.55,21.58,8.92,11.48,5.53,16.83,15.26,17.61,27.75,1.01,16.13-3.47,31.13-9.44,45.83-.16.4-.49.74-.74,1.11-.28-.05-.56-.09-.83-.14Z"/>
        <path d="M898.06,604.26c0-12.87-.1-25.73.07-38.6.04-3.4-.66-5-4.46-4.88-5.61.17-11.23-.36-16.85-.29-3.03.04-3.95-1.17-3.8-4,.2-3.74.14-7.49.19-11.24q.08-6.02,5.96-5.92c12.36.25,24.72.54,37.08.77,8.62.16,17.23.33,25.85.32,2.75,0,3.81.92,3.68,3.71-.22,4.74-.28,9.49-.2,14.24.04,2.72-1.1,3.35-3.65,3.22-5.86-.29-11.74-.2-17.6-.46-2.78-.12-3.86.94-3.77,3.66.07,2.12-.14,4.24-.19,6.37-.6,24.46-1.25,48.92-1.72,73.39-.06,3.09-1.19,3.85-3.99,3.71-4.49-.22-8.99-.31-13.48-.19-2.81.08-3.72-.97-3.62-3.72.24-6.74.31-13.49.37-20.23.06-6.62.01-13.23.01-19.85.04,0,.09,0,.13,0Z"/>
        <path d="M1404.82,643.33c-.84.57-1.84,1.23-2.8,1.93-19.98,14.43-48.79,7.76-60.35-13.96-10.38-19.53-2.4-43.15,18.56-53.5,22.63-11.17,51.94.74,57.74,26.63,1.71,7.62,1.62,15.42-1.75,22.77-1.21,2.63-1.12,4.04,1.74,5.89,12.67,8.22,25.12,16.77,37.53,25.39,5.41,3.76,6.8,8.98,4.42,14.36-2.17,4.9-7.34,6.62-11.75,3.64-12.61-8.54-25.21-17.11-37.63-25.93-2.2-1.56-3.51-4.37-5.71-7.22ZM1378.39,644.72c18.15,0,32.32-12.82,33.31-32.95.81-16.4-15.01-31.13-32.44-31.18-19.27-.06-33.56,13.96-34.38,32.15-.74,16.39,17.39,32.93,33.5,31.97Z"/>
        <path d="M1146.87,598.11c0,17.23-.07,34.47.06,51.7.02,3.28-1.01,4.42-4.32,4.18-4.98-.36-9.98-.39-14.97-.4-2.39,0-3.33-.88-3.27-3.32.51-21.97.95-43.95,1.39-65.92.25-12.73.54-25.46.62-38.2.02-3.16.83-4.53,4.24-4.29,4.6.32,9.24.38,13.85.17,3.43-.16,4.18,1.27,4.16,4.41-.12,17.23-.06,34.46-.06,51.68-.56,0-1.13,0-1.69,0Z"/>
        <path d="M775.71,537.19c0,3.04.02,5.25,0,7.47-.16,13.37-.19,26.74-.54,40.1-.54,20.58-1.3,41.16-1.95,61.74-.06,1.77-.21,3.22-2.57,3.2-6.09-.06-12.19-.02-18.7-.02,0-5.72-.07-10.8.01-15.87.46-26.85.98-53.7,1.43-80.55.08-4.6-.21-9.21-.1-13.81.02-.76,1.15-2.14,1.79-2.16,6.82-.16,13.65-.1,20.64-.1Z"/>
        <path class="cls-1" d="M1077.89,587.16c-3.12,0-6.24-.01-9.36,0-2.08.01-3.35-.77-3.27-3.07.21-5.86.43-11.72.58-17.59.06-2.33,1.07-3.37,3.46-3.31,5.99.15,11.99.16,17.99.27,3.48.06,5.34,1.93,5.39,5.38.06,4.37.09,8.75-.14,13.12-.21,4.02-1.66,5.31-5.64,5.44-3,.09-6,.02-9,.02,0-.09,0-.17,0-.26Z"/>
        <path class="cls-1" d="M1006.89,596.09c0,9.23-.06,18.46.03,27.69.03,3.6-1.72,5.43-5.13,5.52-5.11.14-10.22.15-15.33-.03-3.38-.12-5.25-2.17-5.3-5.57-.06-3.74.09-7.48.12-11.22.11-13.72.19-27.45.33-41.17.08-7.41,1.47-8.78,8.77-8.79,3.74,0,7.48.04,11.22.12,5.34.12,6.06.89,6.05,6.12,0,9.11,0,18.21,0,27.32-.26,0-.51,0-.77,0Z"/>
        <path class="cls-1" d="M615.28,554.85c3.25,0,6.5-.13,9.74.03,3.87.2,5.36,1.78,5.43,5.67.08,4.24-.02,8.49-.05,12.74-.02,3.3-1.73,5.3-4.98,5.36-6.74.13-13.48.08-20.22-.15-.85-.03-2.34-1.56-2.36-2.43-.17-6.24-.15-12.49.11-18.73.04-.91,1.63-2.39,2.61-2.49,3.21-.32,6.48-.12,9.73-.12,0,.04,0,.07,0,.11Z"/>
        <path class="cls-1" d="M1198.53,602.21c1.03,3.65,2.18,7.28,2.98,10.98.13.62-1.12,2.08-1.93,2.26-1.64.36-3.41.11-5.88.11,1.26-4.82,2.36-9.03,3.45-13.25l1.38-.09Z"/>
        <path class="cls-1" d="M1378.39,644.72c-16.11.96-34.24-15.58-33.5-31.97.82-18.2,15.11-32.21,34.38-32.15,17.43.05,33.25,14.77,32.44,31.18-.99,20.14-15.16,32.96-33.31,32.95Z"/>
      </g>
    </g>
  </g>
</svg>